<?xml version="1.0" encoding="utf-8"?>
<!-- Generator: Adobe Illustrator 23.1.1, SVG Export Plug-In . SVG Version: 6.00 Build 0)  -->
<svg version="1.1" id="Camada_1" xmlns="http://www.w3.org/2000/svg" xmlns:xlink="http://www.w3.org/1999/xlink" x="0px" y="0px"
	 viewBox="0 0 1366 768" style="enable-background:new 0 0 1366 768;" xml:space="preserve">
<style type="text/css">
	.st0{display:none;}
	.st1{display:inline;}
	.st2{fill:#37005B;}
	.st3{fill:none;stroke:#37005B;stroke-width:3;}
	.st4{fill:#FF801E;}
	.st5{fill-rule:evenodd;clip-rule:evenodd;fill:#FFFFFF;}
	.st6{fill:#FFFFFF;}
	.st7{display:inline;fill:#FFFFFF;}
	.st8{fill:#061C2A;}
	.st9{fill:url(#SVGID_1_);}
	.st10{fill:url(#SVGID_2_);}
	.st11{fill:url(#SVGID_3_);}
	.st12{fill:url(#SVGID_4_);}
	.st13{fill:url(#SVGID_5_);}
	.st14{fill:url(#SVGID_6_);}
	.st15{fill:url(#SVGID_7_);}
	.st16{fill:url(#SVGID_8_);}
	.st17{fill:url(#SVGID_9_);}
	.st18{fill:url(#SVGID_10_);}
	.st19{fill:url(#SVGID_11_);}
	.st20{fill:url(#SVGID_12_);}
	.st21{fill:url(#SVGID_13_);}
	.st22{fill:#212121;}
	.st23{fill:#646464;}
	.st24{fill:#FECE77;}
	.st25{fill:#FEFEFE;}
	.st26{fill:#CF8A5B;}
	.st27{fill:#FDFDFD;}
	.st28{fill:#CF8A5A;}
	.st29{fill:#CD895A;}
	.st30{fill:#C28255;}
	.st31{fill:#C68457;}
	.st32{fill:#B77A50;}
	.st33{fill:#C48356;}
	.st34{fill:#C08154;}
	.st35{fill:#CB8759;}
	.st36{fill:#C58356;}
	.st37{fill:#AB724B;}
	.st38{fill:#A36D47;}
	.st39{fill:#A77049;}
	.st40{fill:#A56E48;}
	.st41{fill:#AF754D;}
	.st42{fill:#312115;}
	.st43{fill:#919191;}
	.st44{fill:#68452E;}
	.st45{fill:#BB7D52;}
	.st46{fill:#4D4D4D;}
	.st47{fill:#DDDDDD;}
	.st48{fill:#2C2314;}
	.st49{fill:#3E321D;}
	.st50{fill:#140D09;}
	.st51{fill:#040302;}
	.st52{fill:#FCFDFC;}
	.st53{font-family:'Poppins-Bold';}
	.st54{font-size:42.4916px;}
	.st55{opacity:0.53;fill:url(#pontinhos_GRADIENTE_1_);}
	.st56{opacity:0.13;fill:#FFFFFF;}
	.st57{font-size:315.9749px;}
</style>
<g class="st0">
	<g id="Grupo_421_1_" transform="translate(1121 56)" class="st1">
		<g id="Retângulo_40_3_" transform="translate(5 5)">
			<path class="st2" d="M-160.6,576.5h21c13.5,0,24.5,11,24.5,24.5l0,0c0,13.5-11,24.5-24.5,24.5h-21c-13.5,0-24.5-11-24.5-24.5l0,0
				C-185.1,587.4-174.1,576.5-160.6,576.5z"/>
			<path class="st3" d="M-160.6,578h21c12.7,0,23,10.3,23,23l0,0c0,12.7-10.3,23-23,23h-21c-12.7,0-23-10.3-23-23l0,0
				C-183.6,588.2-173.3,578-160.6,578z"/>
		</g>
		<g id="Retângulo_5_3_">
			<path class="st4" d="M-160.6,576.5h21c13.5,0,24.5,11,24.5,24.5l0,0c0,13.5-11,24.5-24.5,24.5h-21c-13.5,0-24.5-11-24.5-24.5l0,0
				C-185.1,587.4-174.1,576.5-160.6,576.5z"/>
			<path class="st3" d="M-160.6,578h21c12.7,0,23,10.3,23,23l0,0c0,12.7-10.3,23-23,23h-21c-12.7,0-23-10.3-23-23l0,0
				C-183.6,588.2-173.3,578-160.6,578z"/>
		</g>
	</g>
	<g class="st1">
		<g>
			<path class="st5" d="M989.8,654.9c0,9-7.4,16.4-16.5,16.4c-2.9,0-5.6-0.7-8-2l-9.1,2.9l3-8.8c-1.5-2.5-2.4-5.4-2.4-8.5
				c0-9,7.4-16.4,16.5-16.4C982.4,638.6,989.8,645.9,989.8,654.9L989.8,654.9z M973.3,641.2c-7.7,0-13.9,6.2-13.9,13.8
				c0,3,1,5.8,2.6,8.1l-1.7,5.1l5.3-1.7c2.2,1.4,4.8,2.3,7.6,2.3c7.7,0,13.9-6.2,13.9-13.8C987.2,647.3,981,641.2,973.3,641.2
				L973.3,641.2z M981.7,658.7c-0.1-0.2-0.4-0.3-0.8-0.5c-0.4-0.2-2.4-1.2-2.8-1.3c-0.4-0.1-0.6-0.2-0.9,0.2c-0.3,0.4-1,1.3-1.3,1.6
				c-0.2,0.3-0.5,0.3-0.9,0.1c-0.4-0.2-1.7-0.6-3.2-2c-1.2-1.1-2-2.4-2.2-2.8c-0.2-0.4,0-0.6,0.2-0.8c0.2-0.2,0.4-0.5,0.6-0.7
				c0.2-0.2,0.3-0.4,0.4-0.7c0.1-0.3,0.1-0.5,0-0.7c-0.1-0.2-0.9-2.2-1.2-3s-0.7-0.8-0.9-0.8s-0.7,0.1-0.7,0.1s-0.8,0.1-1.2,0.5
				s-1.4,1.4-1.4,3.3s1.5,3.9,1.7,4.2c0.2,0.3,2.8,4.5,6.9,6.1c4.1,1.6,4.1,1.1,4.9,1c0.7-0.1,2.4-1,2.7-1.9
				C981.8,659.7,981.8,658.9,981.7,658.7L981.7,658.7z"/>
		</g>
	</g>
	<g id="Grupo_418" class="st1">
		<g id="Retângulo_40" transform="translate(5 5)">
			<path class="st2" d="M1118.4,634.7h21c13.5,0,24.5,11,24.5,24.5l0,0c0,13.5-11,24.5-24.5,24.5h-21c-13.5,0-24.5-11-24.5-24.5l0,0
				C1093.9,645.7,1104.9,634.7,1118.4,634.7z"/>
			<path class="st3" d="M1118.4,636.2h21c12.7,0,23,10.3,23,23l0,0c0,12.7-10.3,23-23,23h-21c-12.7,0-23-10.3-23-23l0,0
				C1095.4,646.5,1105.7,636.2,1118.4,636.2z"/>
		</g>
		<g id="Retângulo_5">
			<path class="st4" d="M1118.4,634.7h21c13.5,0,24.5,11,24.5,24.5l0,0c0,13.5-11,24.5-24.5,24.5h-21c-13.5,0-24.5-11-24.5-24.5l0,0
				C1093.9,645.7,1104.9,634.7,1118.4,634.7z"/>
			<path class="st3" d="M1118.4,636.2h21c12.7,0,23,10.3,23,23l0,0c0,12.7-10.3,23-23,23h-21c-12.7,0-23-10.3-23-23l0,0
				C1095.4,646.5,1105.7,636.2,1118.4,636.2z"/>
		</g>
	</g>
	<g id="Grupo_406" transform="translate(-102.726 -102.052)" class="st1">
		<path id="Caminho_723" class="st6" d="M1214.5,747.6c0,2.1,1.7,3.8,3.8,3.9c0.1,0,0.2,0,0.3,0h0.1c2.1-0.2,3.7-2,3.6-4.1
			c-0.2-2.1-2-3.7-4.1-3.6C1216.1,743.8,1214.5,745.5,1214.5,747.6L1214.5,747.6z"/>
		<path id="Caminho_724" class="st6" d="M1249.1,776.8V764c0-6.8-3.7-10-8.5-10c-2.7-0.1-5.3,1.3-6.7,3.7v-3.2h-7.4
			c0.1,2.1,0,22.3,0,22.3h7.4v-12.5c0-0.6,0.1-1.2,0.2-1.8c0.6-1.6,2.1-2.7,3.8-2.7c2.7,0,3.8,2,3.8,5v11.9H1249.1z"/>
		<rect id="Retângulo_118" x="1214.9" y="754.5" class="st6" width="7.4" height="22.3"/>
	</g>
	<g id="Grupo_421_2_" transform="translate(1121 56)" class="st1">
		<g id="Retângulo_40_1_" transform="translate(5 5)">
			<path class="st2" d="M139.4,575.7h21c13.5,0,24.5,11,24.5,24.5l0,0c0,13.5-11,24.5-24.5,24.5h-21c-13.5,0-24.5-11-24.5-24.5l0,0
				C114.9,586.7,125.9,575.7,139.4,575.7z"/>
			<path class="st3" d="M139.4,577.2h21c12.7,0,23,10.3,23,23l0,0c0,12.7-10.3,23-23,23h-21c-12.7,0-23-10.3-23-23l0,0
				C116.4,587.5,126.7,577.2,139.4,577.2z"/>
		</g>
		<g id="Retângulo_5_1_">
			<path class="st4" d="M139.4,575.7h21c13.5,0,24.5,11,24.5,24.5l0,0c0,13.5-11,24.5-24.5,24.5h-21c-13.5,0-24.5-11-24.5-24.5l0,0
				C114.9,586.7,125.9,575.7,139.4,575.7z"/>
			<path class="st3" d="M139.4,577.2h21c12.7,0,23,10.3,23,23l0,0c0,12.7-10.3,23-23,23h-21c-12.7,0-23-10.3-23-23l0,0
				C116.4,587.5,126.7,577.2,139.4,577.2z"/>
		</g>
	</g>
	<path class="st7" d="M1256.4,670.6h29.5c3.1,0,5.5-2.5,5.5-5.5v-18.4c0-3-2.5-5.5-5.5-5.5h-29.5c-3,0-5.5,2.5-5.5,5.5v18.4
		C1250.8,668.1,1253.3,670.6,1256.4,670.6z M1287.7,664.3l-8.4-8.5l8.4-8.5V664.3z M1267.2,660.1c1.1,1.1,2.5,1.6,3.9,1.6
		s2.8-0.5,3.9-1.6l1.6-1.6l8.5,8.5h-28l8.5-8.5L1267.2,660.1z M1272.4,657.5c-0.7,0.7-1.9,0.7-2.6,0l-12.7-12.7h28L1272.4,657.5z
		 M1263,655.8l-8.4,8.5v-16.9L1263,655.8z"/>
</g>
<rect x="-1.8" y="0.9" class="st8" width="1374.6" height="773.9"/>
<g id="TEXTO_GRADIENTE_1_">
	<g>
		<linearGradient id="SVGID_1_" gradientUnits="userSpaceOnUse" x1="559.3555" y1="387.23" x2="1324.4287" y2="387.23">
			<stop  offset="0.2638" style="stop-color:#BD01FA"/>
			<stop  offset="0.4465" style="stop-color:#A90FF0"/>
			<stop  offset="0.8195" style="stop-color:#7532D5"/>
			<stop  offset="0.9569" style="stop-color:#6040CA"/>
		</linearGradient>
		<path class="st9" d="M643.2,357.4l-14.3,60h-18l-9.6-40.1l-9.7,40.1h-18l-14.3-60h15.8l7.7,43.4l10.5-43.4h15.9l10.5,43.4
			l7.8-43.4H643.2z"/>
		<linearGradient id="SVGID_2_" gradientUnits="userSpaceOnUse" x1="559.3555" y1="387.23" x2="1324.4287" y2="387.23">
			<stop  offset="0.2638" style="stop-color:#BD01FA"/>
			<stop  offset="0.4465" style="stop-color:#A90FF0"/>
			<stop  offset="0.8195" style="stop-color:#7532D5"/>
			<stop  offset="0.9569" style="stop-color:#6040CA"/>
		</linearGradient>
		<path class="st10" d="M665.4,369v12.6h20.3v10.9h-20.3v13.3h22.8v11.6h-37.3v-60h37.3V369H665.4z"/>
		<linearGradient id="SVGID_3_" gradientUnits="userSpaceOnUse" x1="559.3555" y1="387.23" x2="1324.4287" y2="387.23">
			<stop  offset="0.2638" style="stop-color:#BD01FA"/>
			<stop  offset="0.4465" style="stop-color:#A90FF0"/>
			<stop  offset="0.8195" style="stop-color:#7532D5"/>
			<stop  offset="0.9569" style="stop-color:#6040CA"/>
		</linearGradient>
		<path class="st11" d="M737.1,409.2c-1.6,2.7-4,4.8-7.1,6.4c-3.1,1.6-6.9,2.4-11.4,2.4c-6.7,0-12.3-1.6-16.6-4.9
			c-4.4-3.3-6.7-7.9-7.1-13.7h15.4c0.2,2.3,1,4,2.4,5.3c1.4,1.3,3.2,2,5.3,2c1.9,0,3.3-0.5,4.4-1.5c1.1-1,1.6-2.4,1.6-4.1
			c0-1.5-0.5-2.8-1.5-3.8c-1-1-2.2-1.9-3.7-2.5c-1.5-0.6-3.5-1.4-6.1-2.3c-3.8-1.3-6.9-2.6-9.3-3.8c-2.4-1.2-4.5-3-6.2-5.4
			c-1.7-2.4-2.6-5.5-2.6-9.4c0-3.6,0.9-6.6,2.7-9.2c1.8-2.6,4.3-4.6,7.5-6c3.2-1.4,6.9-2.1,11-2.1c6.7,0,12,1.6,15.9,4.8
			c3.9,3.2,6.1,7.5,6.7,13.1h-15.7c-0.3-2-1-3.5-2.2-4.7c-1.2-1.2-2.7-1.7-4.7-1.7c-1.7,0-3.1,0.5-4.1,1.4c-1,0.9-1.6,2.2-1.6,4
			c0,1.4,0.5,2.6,1.4,3.6c0.9,1,2.1,1.8,3.5,2.4c1.4,0.6,3.4,1.4,6.1,2.4c3.8,1.3,7,2.6,9.4,3.9c2.4,1.3,4.5,3.1,6.3,5.6
			c1.8,2.4,2.6,5.6,2.6,9.5C739.5,403.7,738.7,406.6,737.1,409.2z"/>
		<linearGradient id="SVGID_4_" gradientUnits="userSpaceOnUse" x1="559.3555" y1="387.23" x2="1324.4287" y2="387.23">
			<stop  offset="0.2638" style="stop-color:#BD01FA"/>
			<stop  offset="0.4465" style="stop-color:#A90FF0"/>
			<stop  offset="0.8195" style="stop-color:#7532D5"/>
			<stop  offset="0.9569" style="stop-color:#6040CA"/>
		</linearGradient>
		<path class="st12" d="M762.1,406.3h19.3v11.1h-33.8v-60h14.5V406.3z"/>
		<linearGradient id="SVGID_5_" gradientUnits="userSpaceOnUse" x1="559.3555" y1="387.23" x2="1324.4287" y2="387.23">
			<stop  offset="0.2638" style="stop-color:#BD01FA"/>
			<stop  offset="0.4465" style="stop-color:#A90FF0"/>
			<stop  offset="0.8195" style="stop-color:#7532D5"/>
			<stop  offset="0.9569" style="stop-color:#6040CA"/>
		</linearGradient>
		<path class="st13" d="M802.6,369v12.6h20.3v10.9h-20.3v13.3h22.8v11.6h-37.3v-60h37.3V369H802.6z"/>
		<linearGradient id="SVGID_6_" gradientUnits="userSpaceOnUse" x1="559.3555" y1="387.23" x2="1324.4287" y2="387.23">
			<stop  offset="0.2638" style="stop-color:#BD01FA"/>
			<stop  offset="0.4465" style="stop-color:#A90FF0"/>
			<stop  offset="0.8195" style="stop-color:#7532D5"/>
			<stop  offset="0.9569" style="stop-color:#6040CA"/>
		</linearGradient>
		<path class="st14" d="M885.5,357.4l-20.8,40v19.9h-14.6v-19.9l-20.8-40H846l11.5,24.4l11.5-24.4H885.5z"/>
		<linearGradient id="SVGID_7_" gradientUnits="userSpaceOnUse" x1="559.3555" y1="387.23" x2="1324.4287" y2="387.23">
			<stop  offset="0.2638" style="stop-color:#BD01FA"/>
			<stop  offset="0.4465" style="stop-color:#A90FF0"/>
			<stop  offset="0.8195" style="stop-color:#7532D5"/>
			<stop  offset="0.9569" style="stop-color:#6040CA"/>
		</linearGradient>
		<path class="st15" d="M938.8,417.4l-13-22.6h-3.3v22.6H908v-60h24.8c4.7,0,8.8,0.8,12,2.5c3.3,1.6,5.7,3.9,7.4,6.7
			c1.6,2.9,2.5,6.1,2.5,9.8c0,4.4-1.2,8.1-3.6,11.1c-2.4,3.1-5.9,5.1-10.5,6.3l14.2,23.6H938.8z M922.6,384.8h9c2.9,0,5-0.6,6.4-1.9
			s2-3.2,2-5.6c0-2.4-0.7-4.2-2.1-5.6s-3.5-2-6.3-2h-9V384.8z"/>
		<linearGradient id="SVGID_8_" gradientUnits="userSpaceOnUse" x1="559.3555" y1="387.23" x2="1324.4287" y2="387.23">
			<stop  offset="0.2638" style="stop-color:#BD01FA"/>
			<stop  offset="0.4465" style="stop-color:#A90FF0"/>
			<stop  offset="0.8195" style="stop-color:#7532D5"/>
			<stop  offset="0.9569" style="stop-color:#6040CA"/>
		</linearGradient>
		<path class="st16" d="M999.1,406.4h-22.5l-3.7,10.9h-15.3l22-59.5h16.7l22,59.5h-15.4L999.1,406.4z M995.4,395.4l-7.5-22.1
			l-7.5,22.1H995.4z"/>
		<linearGradient id="SVGID_9_" gradientUnits="userSpaceOnUse" x1="559.3555" y1="387.23" x2="1324.4287" y2="387.23">
			<stop  offset="0.2638" style="stop-color:#BD01FA"/>
			<stop  offset="0.4465" style="stop-color:#A90FF0"/>
			<stop  offset="0.8195" style="stop-color:#7532D5"/>
			<stop  offset="0.9569" style="stop-color:#6040CA"/>
		</linearGradient>
		<path class="st17" d="M1091.3,357.8v59.5h-14.5v-37.2l-12.9,37.2h-12.6l-13-37.3v37.3h-14.5v-59.5h17.7l16.2,41.5l15.9-41.5
			H1091.3z"/>
		<linearGradient id="SVGID_10_" gradientUnits="userSpaceOnUse" x1="559.3555" y1="387.23" x2="1324.4287" y2="387.23">
			<stop  offset="0.2638" style="stop-color:#BD01FA"/>
			<stop  offset="0.4465" style="stop-color:#A90FF0"/>
			<stop  offset="0.8195" style="stop-color:#7532D5"/>
			<stop  offset="0.9569" style="stop-color:#6040CA"/>
		</linearGradient>
		<path class="st18" d="M1138.5,406.4H1116l-3.7,10.9H1097l22-59.5h16.7l22,59.5h-15.4L1138.5,406.4z M1134.8,395.4l-7.5-22.1
			l-7.5,22.1H1134.8z"/>
		<linearGradient id="SVGID_11_" gradientUnits="userSpaceOnUse" x1="559.3555" y1="387.23" x2="1324.4287" y2="387.23">
			<stop  offset="0.2638" style="stop-color:#BD01FA"/>
			<stop  offset="0.4465" style="stop-color:#A90FF0"/>
			<stop  offset="0.8195" style="stop-color:#7532D5"/>
			<stop  offset="0.9569" style="stop-color:#6040CA"/>
		</linearGradient>
		<path class="st19" d="M1177.8,406.3h19.3v11.1h-33.8v-60h14.5V406.3z"/>
		<linearGradient id="SVGID_12_" gradientUnits="userSpaceOnUse" x1="559.3555" y1="387.23" x2="1324.4287" y2="387.23">
			<stop  offset="0.2638" style="stop-color:#BD01FA"/>
			<stop  offset="0.4465" style="stop-color:#A90FF0"/>
			<stop  offset="0.8195" style="stop-color:#7532D5"/>
			<stop  offset="0.9569" style="stop-color:#6040CA"/>
		</linearGradient>
		<path class="st20" d="M1255.6,357.4v60h-14.6v-25h-22.7v25h-14.5v-60h14.5v23.2h22.7v-23.2H1255.6z"/>
		<linearGradient id="SVGID_13_" gradientUnits="userSpaceOnUse" x1="559.3555" y1="387.23" x2="1324.4287" y2="387.23">
			<stop  offset="0.2638" style="stop-color:#BD01FA"/>
			<stop  offset="0.4465" style="stop-color:#A90FF0"/>
			<stop  offset="0.8195" style="stop-color:#7532D5"/>
			<stop  offset="0.9569" style="stop-color:#6040CA"/>
		</linearGradient>
		<path class="st21" d="M1309.5,360.4c4.6,2.6,8.2,6.3,10.9,10.9c2.7,4.7,4,9.9,4,15.8c0,5.9-1.3,11.2-4,15.9
			c-2.7,4.7-6.3,8.4-10.9,11c-4.6,2.6-9.7,3.9-15.3,3.9c-5.6,0-10.7-1.3-15.3-3.9c-4.6-2.6-8.3-6.3-10.9-11c-2.7-4.7-4-10-4-15.9
			c0-5.9,1.3-11.2,4-15.8c2.7-4.7,6.3-8.3,10.9-10.9c4.6-2.6,9.7-3.9,15.3-3.9C1299.8,356.5,1304.9,357.8,1309.5,360.4z
			 M1282.8,374.6c-2.8,3.1-4.2,7.3-4.2,12.6c0,5.3,1.4,9.4,4.2,12.6c2.8,3.1,6.6,4.7,11.3,4.7c4.7,0,8.5-1.6,11.3-4.7
			c2.8-3.1,4.2-7.3,4.2-12.6c0-5.3-1.4-9.4-4.2-12.6c-2.8-3.1-6.6-4.7-11.3-4.7S1285.6,371.5,1282.8,374.6z"/>
	</g>
</g>
<g>
	<path d="M314.6,734.9c-5.6-0.8-11.2-2.7-11.6-9c-0.5-9.5-4.5-18.3-4-27.9c0.4-6.7,0.4-13.4,5.1-19c2.7-3.2,0.9-7.5,0.8-11.3
		c0-1-1.7-0.8-2.6-1c-2.2-0.4-4.4-0.6-6.4-1.6c-0.4-0.6-0.4-1.1-0.1-1.7c1.7-1.2,3.6-0.9,5.4-0.9c9.8,0.3,19.5-0.4,29.1-1.7
		c5.2-0.7,5.4-1,4.8-6.1c-1.7-15-1.6-30-0.7-45c2.3-37.2,11.9-72.9,21.2-108.6c8-30.8,16.3-61.5,20.6-93.2
		c0.9-6.9,1.6-13.9,2.5-20.9c0.2-1.3,0.6-3.1-0.8-3.8c-1.5-0.8-2.5,0.7-3.4,1.7c-5,4.9-9.9,9.9-14.9,14.9c-4.8,4.7-7.9,4.7-12.1-0.3
		c-4-4.8-8.6-9-13-13.5c-3.1-3.1-4.1-3.1-7.7-0.3c-5.9,4.6-12.1,8.9-18,13.5c-4.2,3.2-8,3.4-12.7,0.4c-15.4-9.8-30-20.8-45-31.3
		c-3.3-2.3-3.4-2.4-4.9,1.4c-2.2,5.7-4,11.6-4.8,17.7c-0.4,3.1,0.3,5.5,2.9,7.6c4,3.2,8,6.4,12,9.7c5.7,4.8,5.1,10.2-1.7,13
		c-2.8,1.2-3.2,2.7-2.5,5.2c0.7,2.6,0.7,5.2,0.2,7.8c-0.7,3.9-2.4,6.9-6.6,7.7c-1.7,0.3-2.9,1.5-4.2,2.4c-3,2-6.3,2.9-10,2.4
		c-0.6-0.1-1.1-0.5-1.6-0.9c-3.8-0.7-7.9,1.2-11.3-2.3c-5.4-5.4-7.7-12.1-9-19.4c-1.7-9.6-1.5-19.2-0.8-28.8
		c0.1-1.8,0.6-3.9-2.4-3.9c-1.3,0-1.5-1.6-1.9-2.5c-3.6-8.6-5.2-17.7-6.8-26.8c-5.3-30.3-4.7-60.9-2.6-91.4
		c1.7-24.4,3.6-48.7,5.6-73c0.5-6.8,1.2-13.7,3.5-20.3c2.7-7.5,7.4-12.5,15.3-14.5c11.5-2.9,22.9-5.9,34.4-8.8
		c2.6-0.7,4.6-1.3,3.1-4.9c-0.7-1.6-0.3-3.7,0.4-5.5c0.9-2.7,2.4-4.2,5.3-2.7c1.7,0.9,2.5,0.3,3-1.3c1-2.8,2-5.6,3-8.4
		c0.4-1.2,0.4-2.2-0.5-3.1c-0.2-0.2-0.3-0.4-0.5-0.6c-2-2.8-2.7-6.2-4.3-9c-1.6-2.8-5.8-0.8-8.7-2.4c-6.4-3.7-8.2-12.6-3.5-18.5
		c0.8-1,2.9-1.8,0.9-3.5c-0.9-0.7-0.7-3-2.9-2c-1.6,0.8-3.3,1.5-3.2,3.6c0.1,1.1,0.8,2.4-0.8,2.7c-1.7,0.3-1.9-1.5-2.2-2.5
		c-0.9-3.1,0.2-5.5,3.2-6.7c2-0.8,2.7-1.5,1.4-3.6c-3.9-6.3-5.3-13.4-6.1-20.7c-0.1-1.4-0.3-1.9-1.9-1.8c-2.6,0.2-2.5-1.4-3.3-3.7
		c-1.2-3.5,2.6-6.2,0.2-9.2c-0.2-0.3,0.2-1.7,0.4-1.7c4.4,0,2-6.2,5.4-6.3c2.5-0.1,2.8-0.5,2.9-2.7c0.1-2.5,3-1.8,4.5-3.2
		c2.1-2.1,6-2.5,7.9-4.7c2-2.3,5.1-2,7-4.7c1.5-2.1,5-2.9,7.8-3.8c1.2-0.4,1.9,1.4,2.8,2.2c1.3,0.6,0.9-0.2,0.7-0.9
		c0-2,0.4-4,2.8-4.2c3.3-0.3,3,3,4.5,5.7c0.3-3.4,0.7-6,2.5-8.1c0.8,0,1.5,0,2.3,0c0.9,0.5,2.2,0.6,2.2,2.1c0.1,1.1-0.3,2.1-0.4,3.2
		c0.1-1,0.4-2,0.5-3.1c0.2-1.2,1.3-1.6,2.2-2.2c0.8,0,1.5,0,2.3,0c3.1,0.8,2.6,3.1,1.9,5.4c1.3-5,1.6-5.3,6.3-4.7
		c1.7,1.1,1.7,2.8,1.5,4.6c0.3,0.7,0.4,0,0.6-0.1c1-1.5,1.7-3.4,3.9-3.2c1.9,0.1,2.6,1.6,2.9,3.2c-0.1,0.6-0.8,1.3,0.1,1.8
		c0.1-0.1,0.2-0.1,0.3-0.2c1.3-1.5,2.7-3.4,5-2c2.5,1.5,0.9,3.6,0,5.9c2-0.8,3.6-1.6,5.3-2.2c1.9-0.6,4-0.9,4.7,1.4
		c0.6,2-1,3.1-2.9,3.6c-1.3,0.4-2.6,0.7-3.8,1.4c3-0.3,5.9-0.6,8.9-0.8c1.8-0.1,3.5,0,4.5,2c1,2-0.9,2.8-1.8,4.1
		c2.7,0.5,5.2,1,7.8,1.5c2.1,0.4,4.3,1,4.1,3.5c-0.2,2.5-2.4,2.9-4.6,2.7c-0.3,0-0.7,0.1-1.3,0.2c0.5,0.3,0.8,0.5,1.1,0.6
		c1.9,1,4.1,2.3,3,4.8c-1.2,2.7-3.5,1.5-5.4,0.6c-1.1-0.6-2.2-1.2-2.9-0.9c0.9,1.2,2,2.6,3,4c1,1.5,1.9,3.2,0.3,4.8
		c-1.5,1.5-3,0.5-4.3-0.5c-0.5-0.4-0.9-1.3-2.2-0.7c3.9,6.6,6.8,13.5,8.2,21c0.3,1.4,1.2,1.3,2.2,1.5c1.7,0.3,3.5,0.5,5.2,0.9
		c1.5,0.4,2.2,1.7,1.1,2.8c-2.5,2.4-2.5,5.6-2.9,8.6c-0.5,3.9-1.4,7.6-3.5,11c-1.4,2.2-0.9,4.9-1.2,7.3c-0.5,5.8-1.4,11.4-3.9,16.7
		c-1,2.1-0.4,4.4-1.2,6.6c-2.2,5.9-5.5,10.9-11.2,14.1c1.9,1.6,3.8,2.8,3.4,5.6c-0.3,1.9,1.4,1.6,2.6,1.8c6.5,1.3,13,2.4,19.3,4.5
		c11.3,3.9,18.1,11,20.4,23.4c3.4,18.7,5.5,37.6,7.8,56.5c2.5,20.9,7.9,40.9,16.4,60.1c9.9,22.5,14.6,46.2,14.6,70.8
		c0,3.4-0.3,6.8-0.8,10.1c-0.2,1.6-0.5,3.9-1.5,4.5c-4,2.1-1.7,5.2-1.9,8c-0.6,11.8-3.1,23.1-9.6,33c-3.1,4.7-7.6,6.9-13.3,5.3
		c-2.9-0.8-2.1,1.4-2.4,2.5c-3.3,16.4-7.2,32.7-11.4,48.9c-6.7,26.1-14,52.1-19.4,78.6c-5.3,26-8.8,52.1-7.9,78.7
		c0.3,7.5,0.9,15,2.1,22.4c0.4,2.8,0.7,5.4-3.5,5.1c-1.4-0.1-2.3,0.5-1.7,2.3c0.5,1.5,0.7,3.2,0.9,4.8c0.4,4.9,0.7,9.3,7.5,10
		c4.1,0.4,7.4,4,10.3,7.1c10.6,11.2,22.2,21.2,35.6,29.1c4.1,2.4,7.5,5.5,8.1,10.6c0.2,1.6,2.1,1.8,2.5,3.5
		c1.2,5.4-0.8,9.4-6.2,11.2c-14.3,4.6-28.8,4.4-43.3,1.9c-10.1-1.8-20-4.4-29.5-8c-0.1-1.2,0.8-1.3,1.6-1.5c3.1,0,5.8,1.3,8.7,2.1
		c14.1,3.9,28.4,6.7,43.2,6c5.5-0.3,11-0.9,16.3-2.4c2.8-0.8,5.2-2.2,6-6.1c-9,7.8-19.2,6.6-29.2,5.6c-15.4-1.5-30-6.5-44.7-10.8
		c-5.8-1.7-11.9-2.9-17.8-6.1c0.8,3.2,2.6,4.9,4.9,6.2c1.6,0.9,3.5,1.4,4.5,3.3C315.7,734.7,315.5,735.2,314.6,734.9z"/>
	<path d="M296.1,663.4c0,0.5,0,1,0,1.5c-2.2-0.5-4.3-1-6.5-1.6c-1.9-0.5-2.3-2.1-2.4-3.8c-1.2-24.1-3.6-48.2-1.5-72.4
		c1.5-18.2,4.6-36.2,8.2-54.1c5-25,6.9-50.3,7.7-75.7c0.4-1.9,0.4-2-0.8-2.2c-12.9,34.1-25,68.5-35.6,103.3
		c-10.8,35.3-20.1,70.9-28.1,106.9c-0.4,1.6-1,3.2,0,5c0.7,1.3-0.1,2.4-1.6,2.8c-0.2,0.1-0.5,0.1-0.7,0.1c-7-0.2-9.6,3.1-9.6,10.1
		c0,6.2-0.7,11.9,1.6,18.3c4.3,11.7,11,22.4,13.5,34.7c0.1,0.5,0.5,1.3,1,1.4c4.3,1.1,4.1,4.8,4.7,8c0.1,0.7,0,1.5,0.1,2.3
		c0.4,9.3,0.4,9.7-8.3,12.8c-17.8,6.4-35.1,3.6-52-3.8c-2-0.9-2.9-2.5-2.9-4.8c0.1-13.6,0.7-27.2,4.3-40.5
		c1.7-6.3,3.3-12.6,1.4-19.1c-0.7-2.4,0.3-4.7,1.5-6.8c1.4-2.4,2.4-4.9,3.7-7.3c1.7-3.3,1-4.9-2.5-5.4c0.1-1.5,1.3-1.4,2.3-1.6
		c10.9-0.1,21.7-0.6,32.5-2.1c3.7-0.5,5.3-2.2,6.2-5.8c6.9-29,14.3-57.9,22.5-86.6c12.4-43.4,26.6-86.2,44.6-127.7
		c2.2-5.1,4.6-10,6.8-15.1c0.5-1.1,1-2.3,2.4-2.7c1.1,0.2,1.2,1.1,1.3,2c-0.7,3-1.6,5.9,0.8,8.8c1.5,1.8,0.2,4.1-1.4,5.3
		c-4.1,3.3-4.1,7.4-3.3,12.2c1.7,10.7,1,21.4,0.2,32.2c-1.7,25-7.6,49.5-11.3,74.2c-2.5,16.7-3.2,33.4-2.5,50.2
		c0.6,13.7,1.6,27.5,1.3,41.2C293.3,660.2,294.2,662,296.1,663.4z"/>
	<path d="M193.5,672.3c-0.9,0.1-1.8-0.1-2.5,0.8c-0.5,0.1-1.1,0.1-1.4,0.4c-1.2,1.3-2.5,1.7-4,0.8c-1.6-0.9-1.4-2.5-1.2-4
		c1-10.1,1.9-20.2,3-30.3c4.7-41.9,12.7-83.3,23.1-124.2c4-15.6,10.2-30.5,14.6-46c2.5-9,5-18.1,5-27.5c0.5,0,1,0.1,1.6,0.1
		c1.6,2.8,0.9,5.8,0.6,8.8c-1.3,14.1-5.6,27.4-9.3,40.9c-12.3,44.2-21.9,89-27.6,134.5c-1.6,12.8-2.6,25.6-3.9,38.4
		C191.1,667.8,192,670.1,193.5,672.3z"/>
	<path class="st22" d="M324,737c-0.5,0.3-1.1,0.5-1.6,0.8c-2.7-0.6-5.3-1.5-7.7-2.8c0.3-0.3,0.6-0.5,0.9-0.8
		C318.9,733.4,321.8,734.2,324,737z"/>
	<path class="st23" d="M300.7,455.2c0.2-0.4,0.3-0.9,0.6-1.1c0.6-0.4,0.8,0.1,0.8,0.6c0,0.9,0.1,1.9-0.6,2.7
		C301,456.7,301.7,455.6,300.7,455.2z"/>
	<path class="st24" d="M193.5,672.3c-3,0.1-3.4-1.5-3.3-4.2c2-29,5.8-57.8,10.9-86.4c6.8-38.1,16.7-75.4,27-112.7
		c2.4-8.7,3.3-17.7,3.6-26.7c3,0.4,5.7-0.3,8.3-1.7c2.5-1.3,4.3-3.5,7.6-3.9c3-0.4,3.7-4.1,4.1-7c0.5-3.3-0.1-6.5-1-9.6
		c-0.5-1.8-0.7-2.8,1.8-2.8c1.9,0,3.6-1,5-2.2c2.8-2.5,2.8-6,0-8.4c-4.8-4-9.6-8-14.6-11.8c-2-1.5-2.5-3.2-2.3-5.5
		c0.6-8.9,3.7-17,7-25.3c10.1,7.2,19.9,14.3,29.8,21.3c6.9,4.9,14.1,9.5,21.2,14.1c3.2,2.1,5.8,1.6,8.5-0.4
		c6.9-5.2,13.9-10.2,20.7-15.5c2.7-2.1,4.6-2.2,7,0.5c4.6,5.1,9.5,10,14.2,15c3.9,4.2,5.8,4.2,9.8,0.2c5.5-5.5,11-10.9,16.6-16.4
		c1.1-1.1,2.1-2.3,3.8-1.6c1.8,0.8,0.9,2.4,0.8,3.5c-1.7,20.5-4.9,40.7-9.3,60.8c-7.3,33.1-17.1,65.6-24.7,98.6
		c-6.8,29.6-11.7,59.4-11,90c0.2,7.9,0.8,15.8,1.8,23.6c0.3,2.3-0.3,2.9-2.6,3.3c-12.6,2.1-25.4,2.4-38.1,2.2
		c-3.1,0.1-4.1-1.1-3.9-4.4c0.8-16.9-0.8-33.8-1.4-50.7c-0.8-23.5,3.1-46.4,7.3-69.3c4.1-22.7,7.8-45.4,7.4-68.5
		c-0.1-5.3-0.4-10.5-1.7-15.6c-0.4-1.8-0.3-3.3,1.4-4.7c1.3-1.1,2.4-2.5,3.6-3.8c2-2.2,2.5-4.2-1-5.3c-1.6-0.5-1.1-1.3-0.7-2.2
		c0.6-1.9,1.3-3.7,1.9-5.6c0.7-0.7,0.1-1.5,0.4-2.3c0.1-0.3,0.2-0.6,0.4-0.9c-0.1,0-0.2,0.2-0.3,0.4c-0.3,0.5-0.6,0.9-1.1,1.3
		c-5.6,11.3-10.4,22.9-15.2,34.5c-23.5,57.9-40.4,117.9-55.5,178.4c-1.8,7-3.7,14-5.1,21.1c-0.6,3-2.1,3.8-4.6,4.2
		c-9.5,1.6-19.1,2.1-28.7,2.1C197.3,672.2,195.4,672.2,193.5,672.3z"/>
	<path class="st25" d="M301.8,698.6c0.1-5,0.3-10,1.7-14.9c0.3-1.2,0.7-2.8,2-2.9c1.6-0.2,1.5,1.7,1.8,2.7c1.4,4.1,3.7,7.4,7.1,9.8
		c4.7,3.4,9.6,2.7,13.4-1.6c8.3-9.4,14.7-9.8,23.7-0.7c9.7,9.8,19.6,19.3,31.3,26.8c3.1,2,6.4,4,9.4,6.2c2.3,1.7,4.1,3.9,3.4,7
		c-0.7,3.3-3.5,4.1-6.4,4.9c-13.8,4.1-27.2,0.7-40.4-2.7c-12.1-3-23.9-6.9-36-10.2c-4.5-1.2-6.9-4.2-8.5-8.2
		C302.1,709.6,301.8,704.1,301.8,698.6z"/>
	<path class="st26" d="M323.9,49.6c7.3,6.9,10.7,15.8,12.7,25.4c0.5,2.5-2.6,3.7-6,2.1c-2-1-4.1-2-6.3-2.4c-1.5-0.3-3.6-1.1-3.9,1.3
		c-0.3,2,1.7,2.1,3.2,2.3c0.5,0.1,1,0.2,2,0.4c-2.7,1.9-4.9,3.7-7,5.7c-1.4,1.4-4.8,1.4-6.7-0.8c-1.6-1.8-3.6-2.6-5.7-3.4
		c-1.5-0.5-3.8-0.2-2.6-3.2c0.4-1.1-1.1-1.7-2.4-1.8c-1.8-0.1-3.7,0.1-5.1,1c-3.9,2.4-8.3,2.5-12.6,2.9c-3.1,0.3-6.3,0.7-8.9,2.5
		c-2,1.4-3.8,0-6.2,0.6c1.6-3.7,2.8-6.9,3.5-10.4c0.7-3.8,0.4-7.5-0.6-11.2c-0.9-3.2,0.5-4.7,3.2-5.7c6.7-2.5,13.6-4.3,20.6-5.2
		c11.6-1.3,8.5-3,15.4,7.1c1.1,1.7,2.4,3.7,4.7,2.5c2.4-1.3,1.1-3.4,0.5-5.3c-0.2-0.8,0.1-1,0.8-0.8c1.5,1.2,2.9,2.4,4.4,3.5
		c1.5,1.1,3.2,1.9,4.6,0.2c1.3-1.6,0.3-3.1-0.9-4.3c-0.9-0.9-1.9-1.6-2.9-2.4C321.8,48.5,323,49.5,323.9,49.6z"/>
	<path class="st26" d="M217.2,389.8c4.7,0.2,8.3,0.1,11.8-1.1c3.5-1.2,6,0.2,7.7,2.8c4.4,6.7,9.9,12.2,15.9,17.4
		c0.7,0.6,2,1.1,1.6,2.3c-0.3,1.1-1.6,1.1-2.6,1.2c-2.7,0.4-3.8,1.6-4,4.7c-0.2,3.6,0,7.2-0.2,10.8c-0.3,4.5-1.1,5.4-5.6,6
		c-0.5,0.1-1.1,0.1-1.4,0.4c-4,3.3-8.7,2.7-13.5,2.8c-3.5,0.1-5.3-1.5-6.9-4c-3.4-5.1-5-10.9-6.1-16.8c-1.3-7.4-2.3-14.8-3.2-22.2
		c-0.6-4.6-0.4-4.6,4.2-4.3C215.9,389.7,217.1,389.8,217.2,389.8z"/>
	<path class="st8" d="M238.5,247.4c2.1,3.7,2.2,7.1,2.8,10.4c3.6,19.9,2.7,39.9,1.2,59.9c-0.9,12.4-1.9,24.7-2.9,37.1
		c-0.2,2.5,0.5,4.5,2.8,5.6c2.6,1.2,2.2,2.9,1.4,5.2c-2.8,7.7-6.2,15.3-6.2,23.8c-1.3,0.1-2.1-0.9-2-1.7c1.8-14.6-0.1-29.1-0.8-43.6
		c-1.1-22.3-2.9-44.5-1-66.8C234.6,267.4,236,257.7,238.5,247.4z"/>
	<path class="st26" d="M260.8,100.8c1.3,1.5,3,2.8,3.9,4.4c0.8,1.5,1.6,3.6-0.9,4.6c-3.8,1.4-8.2,0-10.3-3.2
		c-2.3-3.3-2.1-7.6,0.5-10.8c3.5-4.5,7.7-4.8,12.5-1.1c2.1-2,1.9-4.5,1.7-7c-0.2-2.3,0.7-2.9,2.8-2.5c5.7,1.1,9.6,3.3,10.9,10.1
		c1.1,6.4,6.7,11.5,13.5,12.2c6.3,0.6,11.9-3,14.2-9.3c0.7-2,1.1-4.1,1.6-6.2c0.6-2.6,2.2-4.2,4.7-4.8c3.7-1,5,0.1,5,3.9
		c0,1,0,2,0.1,3c0.1,1,0.3,1.9,0.5,3c-1.4,0-2.5-1.5-4.1-0.5c-0.1,1.6,1.6,1.9,2.3,2.9c1,1.5,1.5,3,0.3,4.5
		c-1.2,1.5-2.8,1.4-4.4,0.5c-0.6-0.3-1.1-0.6-1.6-0.9c-1-0.5-1.8-2-3.2-0.8c-1.6,1.4,0.3,2.4,0.6,3.6c-8.1,1.3-15.1,4.5-19.8,11.4
		c-1,1.4-1.7,3-2.5,4.5c-1.7-1-3.5-2-5.1-3c-7.1-4.5-13.2-9.9-16-18.2c-0.5-1.4-0.6-1.6-1.7-0.2c-1.4,1.9-2.2-1.2-3.6-1
		C261.6,99.7,260.6,98.9,260.8,100.8z"/>
	<path class="st26" d="M270.5,127.4c1.5,1.2,2.9,2,4,3.2c8,9.1,19.1,11.7,30.1,14.5c1.3,0.3,2.8,0.3,4,0.7c2.2,0.7,3.7,2.4,2.5,4.7
		c-1.6,3.1-3.7,5.9-5.7,8.8c-1.4,2-3.1,2.1-5.2,0.9c-10.2-6-20.3-12.2-30.3-18.6c-1.3-0.8-2-1.4-1.4-3.2
		C270,135.1,270.4,131.4,270.5,127.4z"/>
	<path class="st27" d="M324,737c-2.7-1.4-5.5-2.2-8.4-2.9c-2.2-1.2-4.5-2.2-6.5-3.5c-2.7-1.8-4.3-4.4-4-8c8.8,5.5,18.8,6.6,28.2,9.6
		c15.4,5,31.1,9,47.6,9c7.1,0,13.3-2.1,18-7.8c1.1,4.9,0,7.2-4.7,8.9c-5.4,2-11.2,2.5-16.9,2.9c-17.5,1.2-34.2-2.7-50.7-7.7
		C325.7,737.4,324.8,737.2,324,737z"/>
	<path class="st26" d="M317.9,667.3c4.4,0.1,8.7-0.5,13-1c1.7-0.2,2.7,0.1,2.2,2.1c-0.2,0.7-0.2,1.5-0.2,2.2c0,3.6,1.2,7.8-0.2,10.7
		c-1.3,2.8-4.7,4.9-6.8,7.6c-2.1,2.8-4.7,4.6-8.4,3.2c-4.2-1.6-7.9-4.5-8.1-8.9c-0.2-4.3-0.6-8.7-0.7-13c0-2.2,0.4-3.2,2.8-3
		C313.7,667.5,315.8,667.3,317.9,667.3z"/>
	<path class="st26" d="M383.4,423.4c-2.5,0.2-3.7-0.7-3.2-3.7c1.4-9.1,2.5-18.3,3.6-27.5c0.2-1.9,0.6-3,2.6-3.4
		c4.2-0.8,8.1-2.4,11.9-4.4c2-1,2.7-0.4,2.8,1.6c0,0.4,0,0.8-0.1,1.1c-2.5,11.1-4.7,22.2-10.9,32
		C388.6,421.6,386.8,423.7,383.4,423.4z"/>
	<path class="st26" d="M297,83.4c5.1-0.2,9.6,1.3,12.3,5.7c1.8,3-3.1,12.7-6.9,14.9c-5.3,3.1-12.2,1.3-16.6-4
		c-5.8-7-1.7-15.3,6.1-16C293.6,83.8,295.3,83.6,297,83.4z"/>
	<path class="st28" d="M313.7,113c2.4,0.2,5.2,0.4,7.9,0.8c4.4,0.8,8.6,5.5,8.9,9.9c0.1,2.1-1,3.6-2.8,4.5c-1.8,0.9-3.7,1.6-5.5-0.1
		c-1.2-1.1-2.4-2.3-3.8-3c-2.6-1.1-4.8,0.1-6,2.3c-2.1,3.7-5.1,3.9-8.6,2.9c-0.4-0.1-0.8-0.1-1.1-0.2c-2.9-1.1-7.1-1.2-7.8-4.8
		c-0.8-3.8,2.5-6.3,5.2-8.5C303.9,113.8,308.6,113.2,313.7,113z"/>
	<path class="st28" d="M327.3,84c2.3-2.2,5.3-2.2,8.2-2.7c1.5-0.3,1.9,0.5,2,1.9c0.2,5.4,0,10.8-0.3,16.1c-0.1,2.1-1.5,2.7-3.2,3
		c-6.4,1.2-12.7-5.2-11.6-11.7c0.1-0.5,0-1,0.7-1.1c0.6-0.1,1,0.2,1.2,0.6c0.8,1.9,1.6,3.7,4,2.1c1.7-1.2,1.7-5.2,0.2-6.9
		C328.1,84.9,327.2,85,327.3,84z"/>
	<path class="st29" d="M334.1,118.3c-5.3-7.4-6.5-8.4-13-11.1c1-1.9,2.4-3.6,2.1-6.4c3.6,3.6,7.2,5.2,11.8,3.8
		c1.6-0.5,1.7,0.6,1.5,1.6C335.8,110.3,335.6,114.4,334.1,118.3z"/>
	<path class="st30" d="M334.3,304.9c0,1.5-0.7,3.2-2.3,3.1c-1.7,0-2-1.9-2.2-3.4c-0.2-1.6,0.5-2.8,2.2-2.8
		C333.5,302,334.3,303.2,334.3,304.9z"/>
	<path class="st31" d="M339.5,368.1c-0.3,1.8-1.1,2.9-2.9,2.9c-1.4,0-2.3-0.8-2.4-2.2c-0.1-1.8,0.9-2.9,2.6-3
		C338.3,365.6,339.1,366.8,339.5,368.1z"/>
	<path class="st32" d="M325.9,271.7c1.2,0.2,2.2,0.8,2.3,2.1c0.1,1.3-0.7,2.1-2,2.2c-1.3,0-2.2-0.7-2.3-2
		C323.7,272.6,324.7,272,325.9,271.7z"/>
	<path class="st33" d="M321.2,242.1c1.4,0,2,0.7,2,2c0,1.3-0.5,2.3-1.8,2.3c-1.2,0-2-0.8-2.1-2.1C319.3,243,319.9,242.3,321.2,242.1
		z"/>
	<path class="st8" d="M341,84.3c2,3.5,0.6,6.9-0.8,10.3c0-2.9,0-5.8,0-8.7C340,85.1,339.6,84.2,341,84.3z"/>
	<path class="st34" d="M318,215.3c1.2,0.4,2.1,1,1.9,2.3c-0.2,1-0.7,2-1.9,2c-1.4,0-1.8-1.1-1.8-2.4
		C316.2,216.1,316.8,215.4,318,215.3z"/>
	<path class="st35" d="M336.6,340.6c-0.1,0.6-0.4,1.7-1.8,1.7c-1.2,0-1.6-1-1.6-2.1c0-1,0.5-2,1.7-2
		C336.1,338.2,336.7,338.8,336.6,340.6z"/>
	<path class="st36" d="M310.6,185.6c1.5,0,2.2,0.7,2.3,1.8c0.1,1.2-0.7,1.9-1.8,1.9c-1.1,0-1.7-0.9-1.7-2
		C309.4,186.3,309.9,185.7,310.6,185.6z"/>
	<path class="st37" d="M314.3,44.6c-2,0.5-3.6-0.2-5.4-2C311.6,42.2,313,43.1,314.3,44.6z"/>
	<path class="st38" d="M248.6,52.3c0.5-0.6,0.6-0.9,0.8-1c1.4,0,2.7-1.2,4.1-0.2c0.1,0.1,0,0.8-0.2,0.9
		C251.9,52.8,250.4,53.1,248.6,52.3z"/>
	<path class="st39" d="M256.9,42.8c-2.2,0.3-3.6-0.4-5.2-2C254.2,40.2,255.6,40.9,256.9,42.8z"/>
	<path class="st40" d="M260.3,56.1c-0.7-1.9,0.4-2.8,1.6-3.7c0.1-0.1,0.8,0.4,0.8,0.6C262.4,54.3,261.9,55.5,260.3,56.1z"/>
	<path class="st41" d="M320.3,37.1c1.6-0.6,2.3,0,2.8,1.1c0.1,0.1-0.1,0.6-0.2,0.6C321.6,39.1,321,38.3,320.3,37.1z"/>
	<path class="st23" d="M289.4,16.5c0.5,0,0.9,0,1.4,0c-0.3,1.3-0.6,2.6-1,4.2C289,19.1,289.4,17.8,289.4,16.5z"/>
	<path class="st42" d="M260.8,100.8c-0.6-0.3-1.2-0.6-2.1-1c1.5-0.9,2.6-0.6,3.6,0.3C261.8,100.2,261.1,100.1,260.8,100.8z"/>
	<path class="st43" d="M341,84.3c-0.8,0.3-0.5,1.1-0.8,1.6c-0.2-1-0.5-2.1-0.8-3.5C340.5,82.9,341,83.4,341,84.3z"/>
	<path class="st44" d="M323.9,49.6c-0.7,0.4-1.8-0.2-2.2,0.8c-0.6-0.2-1.4-0.7-1-1.1C321.6,48.5,322.8,48.9,323.9,49.6z"/>
	<path class="st45" d="M316.4,53.4c-0.3,0.3-0.6,0.5-0.8,0.8c-0.6-0.5-1.3-1-1.2-2C315.4,52,316,52.7,316.4,53.4z"/>
	<path class="st25" d="M187.1,731.1c1.2-8.7,1.3-18.2,5.4-27.1c0.3-0.7,0.4-1.7,0.9-2c6.7-3.7,13.4-7.6,21.5-5.4
		c2.7,0.8,4.1,3.1,6,5.2c4.2,4.9,5.6,11.4,9.9,16.1c0.4,0.4,0.8,1,0.9,1.5c2.3,8.4,5.1,16.7,6.2,25.4c0.3,2.3-0.4,3.7-2.6,4.1
		c-13.4,2.6-26.7,3.2-39.9-1.3c-5.1-1.7-7.5-4.8-7.9-9.9C187.3,735.8,187.2,733.8,187.1,731.1z"/>
	<path class="st26" d="M193.7,699.8c-2.2-5.3-2-10.2,0.7-15.2c1.3-2.4,2-5.2,1.8-8c-0.2-1.8,0.4-2.2,2.1-1.9c8,1.2,15.9,1,23.9,0.4
		c1.6-0.1,2,0.1,1.5,1.8c-1.8,5.3-3.7,10.6-4.5,16.2c-0.1,0.8-0.1,1.8-1.5,1.2c-8.4-3.3-15.6,0.2-22.5,4.6
		C194.6,699.2,194.1,699.5,193.7,699.8z"/>
	<path class="st27" d="M242.7,755.1c-7.8,5.5-16.8,6.7-26,6.7c-9.3,0-18.3-2.1-26.9-5.6c-3.8-1.5-5.3-3.8-5.1-7.6c0-0.9,0-1.8,0-2.4
		c12.4,9.8,27.1,9.6,41.8,8.5c5.3-0.4,10.8-0.5,15.5-3.5C244,752.2,243.2,753.7,242.7,755.1z"/>
	<path class="st46" d="M242.7,755.1c0-1.3,1-2.9-0.7-3.9c0.8-0.9,0.5-1.9,0-2.9c0.9-0.8-0.2-2.3,0.9-3.1
		C243.5,748.6,244.6,751.9,242.7,755.1z"/>
	<path class="st47" d="M243,745.3c-0.6,1,0.7,2.4-0.9,3.1c-0.1-2.1,0-4.2-0.9-6.6C242.9,742.7,242.8,744.1,243,745.3z"/>
	<path class="st48" d="M309.7,431.2c0,0.8-0.2,1.5-0.8,2.1c-0.2-0.5-0.4-1-0.6-1.4c0.2-0.5,0.4-1,0.7-1.6
		C309.6,430.2,310,430.3,309.7,431.2z"/>
	<path class="st49" d="M309.7,431.2c-0.3-0.3-0.5-0.6-0.8-0.9c0.4-0.8,0.8-1.6,1.6-3.2C310.7,429.3,310.4,430.3,309.7,431.2z"/>
	<path class="st50" d="M294.6,89.7c0.4-1.8-0.3-4.7,2.8-5.1c2.1-0.2,2.5,1.8,2.3,3.4c-0.3,2.2-0.1,5.3-3.1,5.6
		C294.7,93.9,294.6,91.6,294.6,89.7z"/>
	<path class="st51" d="M314.7,122.6c-2.9-0.2-5.2-1.2-7.1-3.2c-1-1.1-1.6-2.3-0.4-3.6c1.2-1.2,2.2-0.4,3.2,0.4
		c4.2,3.5,5.6,3.4,10-0.1c0.7-0.5,1.3-1.6,2.2-0.9c1,0.7,0.4,1.8-0.1,2.7C320.7,121.1,317.9,122.4,314.7,122.6z"/>
</g>
<text transform="matrix(1 0 0 1 560.4741 509.5981)" class="st52 st53 st54">FRONT-END DEVELOPER</text>
<linearGradient id="pontinhos_GRADIENTE_1_" gradientUnits="userSpaceOnUse" x1="-270.9047" y1="157.6974" x2="235.7545" y2="3.0378">
	<stop  offset="0.1878" style="stop-color:#FFFFFF"/>
	<stop  offset="0.2741" style="stop-color:#FAFAFA;stop-opacity:0.9102"/>
	<stop  offset="0.3695" style="stop-color:#EDEDED;stop-opacity:0.8109"/>
	<stop  offset="0.4692" style="stop-color:#D7D7D7;stop-opacity:0.7072"/>
	<stop  offset="0.5719" style="stop-color:#B8B8B8;stop-opacity:0.6003"/>
	<stop  offset="0.677" style="stop-color:#909090;stop-opacity:0.4909"/>
	<stop  offset="0.784" style="stop-color:#5F5F5F;stop-opacity:0.3796"/>
	<stop  offset="0.8906" style="stop-color:#272727;stop-opacity:0.2686"/>
	<stop  offset="0.9566" style="stop-color:#000000;stop-opacity:0.2"/>
</linearGradient>
<path id="pontinhos_GRADIENTE_2_" class="st55" d="M-225.9-30.4c0,3.7-3,6.7-6.7,6.7s-6.7-3-6.7-6.7s3-6.7,6.7-6.7
	S-225.9-34.1-225.9-30.4z M-203.7-37.1c-3.7,0-6.7,3-6.7,6.7s3,6.7,6.7,6.7s6.7-3,6.7-6.7S-200-37.1-203.7-37.1z M-174.9-37.1
	c-3.7,0-6.7,3-6.7,6.7s3,6.7,6.7,6.7s6.7-3,6.7-6.7S-171.2-37.1-174.9-37.1z M-146-37.1c-3.7,0-6.7,3-6.7,6.7s3,6.7,6.7,6.7
	s6.7-3,6.7-6.7S-142.3-37.1-146-37.1z M-117.1-37.1c-3.7,0-6.7,3-6.7,6.7s3,6.7,6.7,6.7s6.7-3,6.7-6.7S-113.4-37.1-117.1-37.1z
	 M-88.2-37.1c-3.7,0-6.7,3-6.7,6.7s3,6.7,6.7,6.7s6.7-3,6.7-6.7S-84.5-37.1-88.2-37.1z M-59.3-37.1c-3.7,0-6.7,3-6.7,6.7
	s3,6.7,6.7,6.7s6.7-3,6.7-6.7S-55.6-37.1-59.3-37.1z M-30.4-37.1c-3.7,0-6.7,3-6.7,6.7s3,6.7,6.7,6.7s6.7-3,6.7-6.7
	S-26.7-37.1-30.4-37.1z M-1.5-37.1c-3.7,0-6.7,3-6.7,6.7s3,6.7,6.7,6.7s6.7-3,6.7-6.7S2.2-37.1-1.5-37.1z M27.4-37.1
	c-3.7,0-6.7,3-6.7,6.7s3,6.7,6.7,6.7s6.7-3,6.7-6.7S31.1-37.1,27.4-37.1z M56.2-37.1c-3.7,0-6.7,3-6.7,6.7s3,6.7,6.7,6.7
	c3.7,0,6.7-3,6.7-6.7S59.9-37.1,56.2-37.1z M85.1-37.1c-3.7,0-6.7,3-6.7,6.7s3,6.7,6.7,6.7s6.7-3,6.7-6.7S88.8-37.1,85.1-37.1z
	 M114-37.1c-3.7,0-6.7,3-6.7,6.7s3,6.7,6.7,6.7c3.7,0,6.7-3,6.7-6.7S117.7-37.1,114-37.1z M142.9-37.1c-3.7,0-6.7,3-6.7,6.7
	s3,6.7,6.7,6.7s6.7-3,6.7-6.7S146.6-37.1,142.9-37.1z M171.8-37.1c-3.7,0-6.7,3-6.7,6.7s3,6.7,6.7,6.7s6.7-3,6.7-6.7
	S175.5-37.1,171.8-37.1z M200.7-37.1c-3.7,0-6.7,3-6.7,6.7s3,6.7,6.7,6.7s6.7-3,6.7-6.7S204.4-37.1,200.7-37.1z M229.6-37.1
	c-3.7,0-6.7,3-6.7,6.7s3,6.7,6.7,6.7s6.7-3,6.7-6.7S233.3-37.1,229.6-37.1z M-239.8-4.9c-3.7,0-6.7,3-6.7,6.7s3,6.7,6.7,6.7
	s6.7-3,6.7-6.7S-236.1-4.9-239.8-4.9z M-211-4.9c-3.7,0-6.7,3-6.7,6.7s3,6.7,6.7,6.7c3.7,0,6.7-3,6.7-6.7S-207.3-4.9-211-4.9z
	 M-182.1-4.9c-3.7,0-6.7,3-6.7,6.7s3,6.7,6.7,6.7s6.7-3,6.7-6.7S-178.4-4.9-182.1-4.9z M-153.2-4.9c-3.7,0-6.7,3-6.7,6.7
	s3,6.7,6.7,6.7c3.7,0,6.7-3,6.7-6.7S-149.5-4.9-153.2-4.9z M-124.3-4.9c-3.7,0-6.7,3-6.7,6.7s3,6.7,6.7,6.7s6.7-3,6.7-6.7
	S-120.6-4.9-124.3-4.9z M-95.4-4.9c-3.7,0-6.7,3-6.7,6.7s3,6.7,6.7,6.7s6.7-3,6.7-6.7S-91.7-4.9-95.4-4.9z M-66.5-4.9
	c-3.7,0-6.7,3-6.7,6.7s3,6.7,6.7,6.7s6.7-3,6.7-6.7S-62.8-4.9-66.5-4.9z M-37.6-4.9c-3.7,0-6.7,3-6.7,6.7s3,6.7,6.7,6.7
	c3.7,0,6.7-3,6.7-6.7S-33.9-4.9-37.6-4.9z M-8.8-4.9c-3.7,0-6.7,3-6.7,6.7s3,6.7,6.7,6.7s6.7-3,6.7-6.7S-5.1-4.9-8.8-4.9z M20.1-4.9
	c-3.7,0-6.7,3-6.7,6.7s3,6.7,6.7,6.7s6.7-3,6.7-6.7S23.8-4.9,20.1-4.9z M49-4.9c-3.7,0-6.7,3-6.7,6.7s3,6.7,6.7,6.7
	c3.7,0,6.7-3,6.7-6.7S52.7-4.9,49-4.9z M77.9-4.9c-3.7,0-6.7,3-6.7,6.7s3,6.7,6.7,6.7c3.7,0,6.7-3,6.7-6.7S81.6-4.9,77.9-4.9z
	 M106.8-4.9c-3.7,0-6.7,3-6.7,6.7s3,6.7,6.7,6.7c3.7,0,6.7-3,6.7-6.7S110.5-4.9,106.8-4.9z M135.7-4.9c-3.7,0-6.7,3-6.7,6.7
	s3,6.7,6.7,6.7s6.7-3,6.7-6.7S139.4-4.9,135.7-4.9z M164.6-4.9c-3.7,0-6.7,3-6.7,6.7s3,6.7,6.7,6.7s6.7-3,6.7-6.7
	S168.3-4.9,164.6-4.9z M193.5-4.9c-3.7,0-6.7,3-6.7,6.7s3,6.7,6.7,6.7s6.7-3,6.7-6.7S197.2-4.9,193.5-4.9z M222.3-4.9
	c-3.7,0-6.7,3-6.7,6.7s3,6.7,6.7,6.7s6.7-3,6.7-6.7S226-4.9,222.3-4.9z M-247.1,27.4c-3.7,0-6.7,3-6.7,6.7c0,3.7,3,6.7,6.7,6.7
	c3.7,0,6.7-3,6.7-6.7C-240.4,30.4-243.4,27.4-247.1,27.4z M-218.2,27.4c-3.7,0-6.7,3-6.7,6.7c0,3.7,3,6.7,6.7,6.7s6.7-3,6.7-6.7
	C-211.5,30.4-214.5,27.4-218.2,27.4z M-189.3,27.4c-3.7,0-6.7,3-6.7,6.7c0,3.7,3,6.7,6.7,6.7s6.7-3,6.7-6.7
	C-182.6,30.4-185.6,27.4-189.3,27.4z M-160.4,27.4c-3.7,0-6.7,3-6.7,6.7c0,3.7,3,6.7,6.7,6.7s6.7-3,6.7-6.7
	C-153.7,30.4-156.7,27.4-160.4,27.4z M-131.5,27.4c-3.7,0-6.7,3-6.7,6.7c0,3.7,3,6.7,6.7,6.7c3.7,0,6.7-3,6.7-6.7
	C-124.8,30.4-127.8,27.4-131.5,27.4z M-102.6,27.4c-3.7,0-6.7,3-6.7,6.7c0,3.7,3,6.7,6.7,6.7c3.7,0,6.7-3,6.7-6.7
	C-95.9,30.4-98.9,27.4-102.6,27.4z M-73.7,27.4c-3.7,0-6.7,3-6.7,6.7c0,3.7,3,6.7,6.7,6.7c3.7,0,6.7-3,6.7-6.7
	C-67.1,30.4-70.1,27.4-73.7,27.4z M-44.9,27.4c-3.7,0-6.7,3-6.7,6.7c0,3.7,3,6.7,6.7,6.7s6.7-3,6.7-6.7
	C-38.2,30.4-41.2,27.4-44.9,27.4z M-16,27.4c-3.7,0-6.7,3-6.7,6.7c0,3.7,3,6.7,6.7,6.7s6.7-3,6.7-6.7C-9.3,30.4-12.3,27.4-16,27.4z
	 M12.9,27.4c-3.7,0-6.7,3-6.7,6.7c0,3.7,3,6.7,6.7,6.7s6.7-3,6.7-6.7C19.6,30.4,16.6,27.4,12.9,27.4z M41.8,27.4
	c-3.7,0-6.7,3-6.7,6.7c0,3.7,3,6.7,6.7,6.7c3.7,0,6.7-3,6.7-6.7C48.5,30.4,45.5,27.4,41.8,27.4z M70.7,27.4c-3.7,0-6.7,3-6.7,6.7
	c0,3.7,3,6.7,6.7,6.7s6.7-3,6.7-6.7C77.4,30.4,74.4,27.4,70.7,27.4z M99.6,27.4c-3.7,0-6.7,3-6.7,6.7c0,3.7,3,6.7,6.7,6.7
	s6.7-3,6.7-6.7C106.3,30.4,103.3,27.4,99.6,27.4z M128.5,27.4c-3.7,0-6.7,3-6.7,6.7c0,3.7,3,6.7,6.7,6.7c3.7,0,6.7-3,6.7-6.7
	C135.2,30.4,132.2,27.4,128.5,27.4z M157.3,27.4c-3.7,0-6.7,3-6.7,6.7c0,3.7,3,6.7,6.7,6.7s6.7-3,6.7-6.7
	C164,30.4,161,27.4,157.3,27.4z M186.2,27.4c-3.7,0-6.7,3-6.7,6.7c0,3.7,3,6.7,6.7,6.7c3.7,0,6.7-3,6.7-6.7
	C192.9,30.4,189.9,27.4,186.2,27.4z M215.1,27.4c-3.7,0-6.7,3-6.7,6.7c0,3.7,3,6.7,6.7,6.7s6.7-3,6.7-6.7
	C221.8,30.4,218.8,27.4,215.1,27.4z M-254.3,59.6c-3.7,0-6.7,3-6.7,6.7c0,3.7,3,6.7,6.7,6.7s6.7-3,6.7-6.7
	C-247.6,62.6-250.6,59.6-254.3,59.6z M-225.4,59.6c-3.7,0-6.7,3-6.7,6.7c0,3.7,3,6.7,6.7,6.7s6.7-3,6.7-6.7
	C-218.7,62.6-221.7,59.6-225.4,59.6z M-196.5,59.6c-3.7,0-6.7,3-6.7,6.7c0,3.7,3,6.7,6.7,6.7s6.7-3,6.7-6.7
	C-189.8,62.6-192.8,59.6-196.5,59.6z M-167.6,59.6c-3.7,0-6.7,3-6.7,6.7c0,3.7,3,6.7,6.7,6.7s6.7-3,6.7-6.7
	C-160.9,62.6-163.9,59.6-167.6,59.6z M-138.7,59.6c-3.7,0-6.7,3-6.7,6.7c0,3.7,3,6.7,6.7,6.7s6.7-3,6.7-6.7
	C-132,62.6-135,59.6-138.7,59.6z M-109.9,59.6c-3.7,0-6.7,3-6.7,6.7c0,3.7,3,6.7,6.7,6.7c3.7,0,6.7-3,6.7-6.7
	C-103.2,62.6-106.2,59.6-109.9,59.6z M-81,59.6c-3.7,0-6.7,3-6.7,6.7c0,3.7,3,6.7,6.7,6.7c3.7,0,6.7-3,6.7-6.7
	C-74.3,62.6-77.3,59.6-81,59.6z M-52.1,59.6c-3.7,0-6.7,3-6.7,6.7c0,3.7,3,6.7,6.7,6.7c3.7,0,6.7-3,6.7-6.7
	C-45.4,62.6-48.4,59.6-52.1,59.6z M-23.2,59.6c-3.7,0-6.7,3-6.7,6.7c0,3.7,3,6.7,6.7,6.7s6.7-3,6.7-6.7
	C-16.5,62.6-19.5,59.6-23.2,59.6z M5.7,59.6c-3.7,0-6.7,3-6.7,6.7C-1,70,2,73,5.7,73s6.7-3,6.7-6.7C12.4,62.6,9.4,59.6,5.7,59.6z
	 M34.6,59.6c-3.7,0-6.7,3-6.7,6.7c0,3.7,3,6.7,6.7,6.7c3.7,0,6.7-3,6.7-6.7C41.3,62.6,38.3,59.6,34.6,59.6z M63.5,59.6
	c-3.7,0-6.7,3-6.7,6.7c0,3.7,3,6.7,6.7,6.7s6.7-3,6.7-6.7C70.2,62.6,67.2,59.6,63.5,59.6z M92.4,59.6c-3.7,0-6.7,3-6.7,6.7
	c0,3.7,3,6.7,6.7,6.7s6.7-3,6.7-6.7C99,62.6,96,59.6,92.4,59.6z M121.2,59.6c-3.7,0-6.7,3-6.7,6.7c0,3.7,3,6.7,6.7,6.7
	s6.7-3,6.7-6.7C127.9,62.6,124.9,59.6,121.2,59.6z M150.1,59.6c-3.7,0-6.7,3-6.7,6.7c0,3.7,3,6.7,6.7,6.7c3.7,0,6.7-3,6.7-6.7
	C156.8,62.6,153.8,59.6,150.1,59.6z M179,59.6c-3.7,0-6.7,3-6.7,6.7c0,3.7,3,6.7,6.7,6.7s6.7-3,6.7-6.7
	C185.7,62.6,182.7,59.6,179,59.6z M207.9,59.6c-3.7,0-6.7,3-6.7,6.7c0,3.7,3,6.7,6.7,6.7c3.7,0,6.7-3,6.7-6.7
	C214.6,62.6,211.6,59.6,207.9,59.6z M-265.1,94.5c-3.7,0-6.7,3-6.7,6.7s3,6.7,6.7,6.7s6.7-3,6.7-6.7S-261.4,94.5-265.1,94.5z
	 M-236.2,94.5c-3.7,0-6.7,3-6.7,6.7s3,6.7,6.7,6.7s6.7-3,6.7-6.7S-232.5,94.5-236.2,94.5z M-207.3,94.5c-3.7,0-6.7,3-6.7,6.7
	s3,6.7,6.7,6.7s6.7-3,6.7-6.7S-203.7,94.5-207.3,94.5z M-178.5,94.5c-3.7,0-6.7,3-6.7,6.7s3,6.7,6.7,6.7s6.7-3,6.7-6.7
	S-174.8,94.5-178.5,94.5z M-149.6,94.5c-3.7,0-6.7,3-6.7,6.7s3,6.7,6.7,6.7s6.7-3,6.7-6.7S-145.9,94.5-149.6,94.5z M-120.7,94.5
	c-3.7,0-6.7,3-6.7,6.7s3,6.7,6.7,6.7c3.7,0,6.7-3,6.7-6.7S-117,94.5-120.7,94.5z M-91.8,94.5c-3.7,0-6.7,3-6.7,6.7s3,6.7,6.7,6.7
	c3.7,0,6.7-3,6.7-6.7S-88.1,94.5-91.8,94.5z M-62.9,94.5c-3.7,0-6.7,3-6.7,6.7s3,6.7,6.7,6.7c3.7,0,6.7-3,6.7-6.7
	S-59.2,94.5-62.9,94.5z M-34,94.5c-3.7,0-6.7,3-6.7,6.7s3,6.7,6.7,6.7c3.7,0,6.7-3,6.7-6.7S-30.3,94.5-34,94.5z M-5.1,94.5
	c-3.7,0-6.7,3-6.7,6.7s3,6.7,6.7,6.7s6.7-3,6.7-6.7S-1.4,94.5-5.1,94.5z M23.7,94.5c-3.7,0-6.7,3-6.7,6.7s3,6.7,6.7,6.7
	s6.7-3,6.7-6.7S27.4,94.5,23.7,94.5z M52.6,94.5c-3.7,0-6.7,3-6.7,6.7s3,6.7,6.7,6.7c3.7,0,6.7-3,6.7-6.7S56.3,94.5,52.6,94.5z
	 M81.5,94.5c-3.7,0-6.7,3-6.7,6.7s3,6.7,6.7,6.7s6.7-3,6.7-6.7S85.2,94.5,81.5,94.5z M110.4,94.5c-3.7,0-6.7,3-6.7,6.7
	s3,6.7,6.7,6.7s6.7-3,6.7-6.7S114.1,94.5,110.4,94.5z M139.3,94.5c-3.7,0-6.7,3-6.7,6.7s3,6.7,6.7,6.7c3.7,0,6.7-3,6.7-6.7
	S143,94.5,139.3,94.5z M168.2,94.5c-3.7,0-6.7,3-6.7,6.7s3,6.7,6.7,6.7s6.7-3,6.7-6.7S171.9,94.5,168.2,94.5z M197.1,94.5
	c-3.7,0-6.7,3-6.7,6.7s3,6.7,6.7,6.7c3.7,0,6.7-3,6.7-6.7S200.8,94.5,197.1,94.5z M-272.3,126.7c-3.7,0-6.7,3-6.7,6.7s3,6.7,6.7,6.7
	s6.7-3,6.7-6.7S-268.6,126.7-272.3,126.7z M-243.5,126.7c-3.7,0-6.7,3-6.7,6.7s3,6.7,6.7,6.7s6.7-3,6.7-6.7
	S-239.8,126.7-243.5,126.7z M-214.6,126.7c-3.7,0-6.7,3-6.7,6.7s3,6.7,6.7,6.7s6.7-3,6.7-6.7S-210.9,126.7-214.6,126.7z
	 M-185.7,126.7c-3.7,0-6.7,3-6.7,6.7s3,6.7,6.7,6.7s6.7-3,6.7-6.7S-182,126.7-185.7,126.7z M-156.8,126.7c-3.7,0-6.7,3-6.7,6.7
	s3,6.7,6.7,6.7s6.7-3,6.7-6.7S-153.1,126.7-156.8,126.7z M-127.9,126.7c-3.7,0-6.7,3-6.7,6.7s3,6.7,6.7,6.7c3.7,0,6.7-3,6.7-6.7
	S-124.2,126.7-127.9,126.7z M-99,126.7c-3.7,0-6.7,3-6.7,6.7s3,6.7,6.7,6.7s6.7-3,6.7-6.7S-95.3,126.7-99,126.7z M-70.1,126.7
	c-3.7,0-6.7,3-6.7,6.7s3,6.7,6.7,6.7s6.7-3,6.7-6.7S-66.4,126.7-70.1,126.7z M-41.3,126.7c-3.7,0-6.7,3-6.7,6.7s3,6.7,6.7,6.7
	c3.7,0,6.7-3,6.7-6.7S-37.6,126.7-41.3,126.7z M-12.4,126.7c-3.7,0-6.7,3-6.7,6.7s3,6.7,6.7,6.7s6.7-3,6.7-6.7
	S-8.7,126.7-12.4,126.7z M16.5,126.7c-3.7,0-6.7,3-6.7,6.7s3,6.7,6.7,6.7s6.7-3,6.7-6.7S20.2,126.7,16.5,126.7z M45.4,126.7
	c-3.7,0-6.7,3-6.7,6.7s3,6.7,6.7,6.7c3.7,0,6.7-3,6.7-6.7S49.1,126.7,45.4,126.7z M74.3,126.7c-3.7,0-6.7,3-6.7,6.7s3,6.7,6.7,6.7
	s6.7-3,6.7-6.7S78,126.7,74.3,126.7z M103.2,126.7c-3.7,0-6.7,3-6.7,6.7s3,6.7,6.7,6.7s6.7-3,6.7-6.7S106.9,126.7,103.2,126.7z
	 M132.1,126.7c-3.7,0-6.7,3-6.7,6.7s3,6.7,6.7,6.7s6.7-3,6.7-6.7S135.8,126.7,132.1,126.7z M161,126.7c-3.7,0-6.7,3-6.7,6.7
	s3,6.7,6.7,6.7s6.7-3,6.7-6.7S164.7,126.7,161,126.7z M189.8,126.7c-3.7,0-6.7,3-6.7,6.7s3,6.7,6.7,6.7s6.7-3,6.7-6.7
	S193.5,126.7,189.8,126.7z M-279.6,159c-3.7,0-6.7,3-6.7,6.7s3,6.7,6.7,6.7s6.7-3,6.7-6.7S-275.9,159-279.6,159z M-250.7,159
	c-3.7,0-6.7,3-6.7,6.7s3,6.7,6.7,6.7s6.7-3,6.7-6.7S-247,159-250.7,159z M-221.8,159c-3.7,0-6.7,3-6.7,6.7s3,6.7,6.7,6.7
	c3.7,0,6.7-3,6.7-6.7S-218.1,159-221.8,159z M-192.9,159c-3.7,0-6.7,3-6.7,6.7s3,6.7,6.7,6.7s6.7-3,6.7-6.7S-189.2,159-192.9,159z
	 M-164,159c-3.7,0-6.7,3-6.7,6.7s3,6.7,6.7,6.7c3.7,0,6.7-3,6.7-6.7S-160.3,159-164,159z M-135.1,159c-3.7,0-6.7,3-6.7,6.7
	s3,6.7,6.7,6.7s6.7-3,6.7-6.7S-131.4,159-135.1,159z M-106.2,159c-3.7,0-6.7,3-6.7,6.7s3,6.7,6.7,6.7s6.7-3,6.7-6.7
	S-102.5,159-106.2,159z M-77.4,159c-3.7,0-6.7,3-6.7,6.7s3,6.7,6.7,6.7s6.7-3,6.7-6.7S-73.7,159-77.4,159z M-48.5,159
	c-3.7,0-6.7,3-6.7,6.7s3,6.7,6.7,6.7c3.7,0,6.7-3,6.7-6.7S-44.8,159-48.5,159z M-19.6,159c-3.7,0-6.7,3-6.7,6.7s3,6.7,6.7,6.7
	s6.7-3,6.7-6.7S-15.9,159-19.6,159z M9.3,159c-3.7,0-6.7,3-6.7,6.7s3,6.7,6.7,6.7s6.7-3,6.7-6.7S13,159,9.3,159z M38.2,159
	c-3.7,0-6.7,3-6.7,6.7s3,6.7,6.7,6.7c3.7,0,6.7-3,6.7-6.7S41.9,159,38.2,159z M67.1,159c-3.7,0-6.7,3-6.7,6.7s3,6.7,6.7,6.7
	c3.7,0,6.7-3,6.7-6.7S70.8,159,67.1,159z M96,159c-3.7,0-6.7,3-6.7,6.7s3,6.7,6.7,6.7c3.7,0,6.7-3,6.7-6.7S99.7,159,96,159z
	 M124.8,159c-3.7,0-6.7,3-6.7,6.7s3,6.7,6.7,6.7c3.7,0,6.7-3,6.7-6.7S128.5,159,124.8,159z M153.7,159c-3.7,0-6.7,3-6.7,6.7
	s3,6.7,6.7,6.7s6.7-3,6.7-6.7S157.4,159,153.7,159z M182.6,159c-3.7,0-6.7,3-6.7,6.7s3,6.7,6.7,6.7s6.7-3,6.7-6.7
	S186.3,159,182.6,159z M-286.8,191.2c-3.7,0-6.7,3-6.7,6.7s3,6.7,6.7,6.7c3.7,0,6.7-3,6.7-6.7S-283.1,191.2-286.8,191.2z
	 M-257.9,191.2c-3.7,0-6.7,3-6.7,6.7s3,6.7,6.7,6.7s6.7-3,6.7-6.7S-254.2,191.2-257.9,191.2z M-229,191.2c-3.7,0-6.7,3-6.7,6.7
	s3,6.7,6.7,6.7s6.7-3,6.7-6.7S-225.3,191.2-229,191.2z M-200.1,191.2c-3.7,0-6.7,3-6.7,6.7s3,6.7,6.7,6.7c3.7,0,6.7-3,6.7-6.7
	S-196.4,191.2-200.1,191.2z M-171.2,191.2c-3.7,0-6.7,3-6.7,6.7s3,6.7,6.7,6.7s6.7-3,6.7-6.7S-167.5,191.2-171.2,191.2z
	 M-142.4,191.2c-3.7,0-6.7,3-6.7,6.7s3,6.7,6.7,6.7s6.7-3,6.7-6.7S-138.7,191.2-142.4,191.2z M-113.5,191.2c-3.7,0-6.7,3-6.7,6.7
	s3,6.7,6.7,6.7s6.7-3,6.7-6.7S-109.8,191.2-113.5,191.2z M-84.6,191.2c-3.7,0-6.7,3-6.7,6.7s3,6.7,6.7,6.7c3.7,0,6.7-3,6.7-6.7
	S-80.9,191.2-84.6,191.2z M-55.7,191.2c-3.7,0-6.7,3-6.7,6.7s3,6.7,6.7,6.7c3.7,0,6.7-3,6.7-6.7S-52,191.2-55.7,191.2z M-26.8,191.2
	c-3.7,0-6.7,3-6.7,6.7s3,6.7,6.7,6.7s6.7-3,6.7-6.7S-23.1,191.2-26.8,191.2z M2.1,191.2c-3.7,0-6.7,3-6.7,6.7s3,6.7,6.7,6.7
	s6.7-3,6.7-6.7S5.8,191.2,2.1,191.2z M31,191.2c-3.7,0-6.7,3-6.7,6.7s3,6.7,6.7,6.7s6.7-3,6.7-6.7S34.7,191.2,31,191.2z M59.9,191.2
	c-3.7,0-6.7,3-6.7,6.7s3,6.7,6.7,6.7c3.7,0,6.7-3,6.7-6.7S63.6,191.2,59.9,191.2z M88.7,191.2c-3.7,0-6.7,3-6.7,6.7s3,6.7,6.7,6.7
	c3.7,0,6.7-3,6.7-6.7S92.4,191.2,88.7,191.2z M117.6,191.2c-3.7,0-6.7,3-6.7,6.7s3,6.7,6.7,6.7c3.7,0,6.7-3,6.7-6.7
	S121.3,191.2,117.6,191.2z M146.5,191.2c-3.7,0-6.7,3-6.7,6.7s3,6.7,6.7,6.7s6.7-3,6.7-6.7S150.2,191.2,146.5,191.2z M175.4,191.2
	c-3.7,0-6.7,3-6.7,6.7s3,6.7,6.7,6.7s6.7-3,6.7-6.7S179.1,191.2,175.4,191.2z"/>
<g>
	<text transform="matrix(1 0 0 1 555.8235 390.9169)" class="st56 st53 st57">JS</text>
</g>
</svg>
